<svg width="54" height="51" viewBox="0 0 54 51" fill="none" xmlns="http://www.w3.org/2000/svg">
<path d="M24.5436 1.27686C5.35465 1.27686 1.99658 4.63493 1.99658 23.8239C1.99658 36.0569 3.31582 41.8135 9.31237 44.452C8.95258 43.8524 8.71272 43.3726 8.47286 42.6531C4.15534 40.0146 3.19589 34.6177 3.19589 23.8239C3.19589 5.35451 5.9543 2.47617 24.5436 2.47617C30.6601 2.47617 34.9776 2.71603 38.0958 3.79541C39.4151 3.91534 40.6144 4.03527 41.8137 4.27513C38.4556 1.87651 33.0587 1.27686 24.5436 1.27686Z" fill="white"/>
<path d="M43.9725 4.51508C40.2547 0.797223 34.0183 0.0776367 24.5437 0.0776367C15.1891 0.0776367 8.95267 0.797223 5.23481 4.51508C1.51695 8.23295 0.797363 14.2295 0.797363 23.824C0.797363 37.8559 2.59633 43.8525 10.5118 46.2511C10.0321 45.7714 9.67226 45.1717 9.31247 44.4521C8.95267 43.8525 8.71281 43.3727 8.47295 42.6532C4.15543 40.0147 3.19598 34.6178 3.19598 23.824C3.19598 5.3546 5.9544 2.47626 24.5437 2.47626C30.6602 2.47626 34.9777 2.71612 38.0959 3.7955C39.4152 3.91543 40.6145 4.03536 41.8138 4.27522C42.6533 4.39515 43.4928 4.63502 44.3323 4.87488C44.2124 4.75495 44.0925 4.63502 43.9725 4.51508Z" fill="white"/>
<path d="M29.8204 5.7143C48.4097 5.7143 51.1681 8.59264 51.1681 27.062C51.1681 45.6513 48.4097 48.5297 29.7004 48.5297C11.1111 48.5297 8.23279 45.7713 8.23279 27.062C8.35272 8.59264 11.2311 5.7143 29.8204 5.7143ZM29.8204 3.31567C20.3458 3.31567 14.1094 4.03526 10.3916 7.75312C6.67369 11.471 5.9541 17.4675 5.9541 27.062C5.9541 47.0905 9.7919 50.9283 29.8204 50.9283C49.8489 50.9283 53.5667 47.0905 53.5667 27.062C53.5667 17.3476 52.8471 11.471 49.1293 7.75312C45.4114 4.03526 39.2949 3.31567 29.8204 3.31567Z" fill="white"/>
<path d="M29.8204 37.0165C29.1008 37.0165 28.6211 36.5367 28.6211 35.8172V18.3072C28.6211 17.5876 29.1008 17.1079 29.8204 17.1079C30.54 17.1079 31.0197 17.5876 31.0197 18.3072V35.9371C31.0197 36.5367 30.4201 37.0165 29.8204 37.0165Z" fill="white"/>
<path d="M38.5753 28.2614H20.9454C20.2258 28.2614 19.7461 27.7817 19.7461 27.0621C19.7461 26.3425 20.2258 25.8628 20.9454 25.8628H38.5753C39.2949 25.8628 39.7746 26.3425 39.7746 27.0621C39.7746 27.7817 39.2949 28.2614 38.5753 28.2614Z" fill="white"/>
</svg>
