<svg width="35" height="35" viewBox="0 0 35 35" fill="none" xmlns="http://www.w3.org/2000/svg">
<path d="M17.3 11.0205C28.9679 11.0205 30.7171 12.4141 30.7171 21.4037C30.7171 30.4317 28.9647 31.7869 17.3 31.7869C5.65137 31.7869 3.88292 30.4317 3.88292 21.4037C3.88292 12.4141 5.65137 11.0205 17.3 11.0205ZM17.3 9.43787C11.2867 9.43787 7.5864 9.78066 5.25411 11.5908C2.78405 13.5066 2.30029 16.6398 2.30029 21.4037C2.30029 26.1804 2.78405 29.3201 5.25411 31.2327C7.57679 33.0299 11.2803 33.3695 17.2968 33.3695C23.323 33.3695 27.0265 33.0299 29.3492 31.2327C31.8128 29.3265 32.2966 26.1836 32.2966 21.4069C32.2966 16.643 31.816 13.5098 29.3524 11.5972C27.0233 9.78066 23.3198 9.43787 17.3 9.43787Z" fill="#000813"/>
<path d="M24.9347 9.23678C24.499 9.23678 24.1434 8.88437 24.1434 8.44547C24.1434 5.34428 21.5836 3.49254 17.3003 3.49254C13.081 3.49254 10.4571 5.38913 10.4571 8.44547C10.4571 8.88117 10.1015 9.23678 9.66583 9.23678C9.23012 9.23678 8.87451 8.88437 8.87451 8.44547C8.87451 5.43078 11.0819 1.90991 17.3003 1.90991C21.1863 1.90991 25.726 3.62069 25.726 8.44547C25.726 8.88117 25.3704 9.23678 24.9347 9.23678Z" fill="#000813"/>
<path d="M9.81936 16.877C10.3413 16.877 10.7645 16.4539 10.7645 15.9319C10.7645 15.4099 10.3413 14.9868 9.81936 14.9868C9.2974 14.9868 8.87427 15.4099 8.87427 15.9319C8.87427 16.4539 9.2974 16.877 9.81936 16.877Z" fill="#000813"/>
<path d="M24.7805 16.877C25.3025 16.877 25.7256 16.4539 25.7256 15.9319C25.7256 15.4099 25.3025 14.9868 24.7805 14.9868C24.2586 14.9868 23.8354 15.4099 23.8354 15.9319C23.8354 16.4539 24.2586 16.877 24.7805 16.877Z" fill="#000813"/>
</svg>
