<svg width="31" height="36" viewBox="0 0 31 36" fill="none" xmlns="http://www.w3.org/2000/svg">
<path d="M15.3096 1.66409C25.9598 1.66409 28.9552 4.65945 28.9552 15.3096C28.9552 25.9598 25.9598 28.9552 15.3096 28.9552C10.8998 28.9552 8.65327 30.7025 1.74729 32.949C1.74729 29.5376 1.66409 21.55 1.66409 15.3096C1.66409 4.65945 4.65945 1.66409 15.3096 1.66409ZM15.3096 0C3.7442 0 0 3.7442 0 15.3096C0 18.8874 0 23.0476 0 26.6254C0 29.2048 0 31.5345 0 32.949V35.1955L2.24652 34.5299C4.65945 33.781 6.57315 33.0322 8.07084 32.4498C10.983 31.2849 12.7303 30.6193 15.3096 30.6193C26.8751 30.6193 30.6193 26.875 30.6193 15.3096C30.6193 3.7442 26.8751 0 15.3096 0Z" fill="black"/>
<path d="M9.65163 17.3062C10.3409 17.3062 10.8997 16.7474 10.8997 16.0581C10.8997 15.3688 10.3409 14.8101 9.65163 14.8101C8.96234 14.8101 8.40356 15.3688 8.40356 16.0581C8.40356 16.7474 8.96234 17.3062 9.65163 17.3062Z" fill="#0C8CE9"/>
<path d="M15.3096 17.3062C15.9989 17.3062 16.5577 16.7474 16.5577 16.0581C16.5577 15.3688 15.9989 14.8101 15.3096 14.8101C14.6203 14.8101 14.0615 15.3688 14.0615 16.0581C14.0615 16.7474 14.6203 17.3062 15.3096 17.3062Z" fill="#0C8CE9"/>
<path d="M20.9675 17.3062C21.6568 17.3062 22.2156 16.7474 22.2156 16.0581C22.2156 15.3688 21.6568 14.8101 20.9675 14.8101C20.2783 14.8101 19.7195 15.3688 19.7195 16.0581C19.7195 16.7474 20.2783 17.3062 20.9675 17.3062Z" fill="#0C8CE9"/>
</svg>
