<svg width="36" height="36" viewBox="0 0 36 36" fill="none" xmlns="http://www.w3.org/2000/svg">
<g clip-path="url(#clip0_380_23929)">
<path d="M18.0504 2.03318C28.28 2.03318 31.157 4.91024 31.157 15.1398C31.157 25.3693 28.28 28.2464 18.0504 28.2464C13.8148 28.2464 11.657 29.9247 5.02374 32.0825C5.02374 28.8058 4.94382 21.1336 4.94382 15.1398C4.94382 4.91024 7.82088 2.03318 18.0504 2.03318ZM18.0504 0.434814C6.94178 0.434814 3.34546 4.03114 3.34546 15.1398C3.34546 18.5763 3.34546 22.5722 3.34546 26.0087C3.34546 28.4861 3.34546 30.7238 3.34546 32.0825V34.2402L5.50325 33.6009C7.82088 32.8816 9.659 32.1624 11.0975 31.6029C13.8947 30.4841 15.573 29.8447 18.0504 29.8447C29.1591 29.8447 32.7554 26.2484 32.7554 15.1398C32.7554 4.03114 29.1591 0.434814 18.0504 0.434814Z" fill="black"/>
<path d="M12.6065 17.0572C13.2686 17.0572 13.8053 16.5205 13.8053 15.8584C13.8053 15.1964 13.2686 14.6597 12.6065 14.6597C11.9444 14.6597 11.4077 15.1964 11.4077 15.8584C11.4077 16.5205 11.9444 17.0572 12.6065 17.0572Z" fill="black"/>
<path d="M18.0374 17.0572C18.6995 17.0572 19.2362 16.5205 19.2362 15.8584C19.2362 15.1964 18.6995 14.6597 18.0374 14.6597C17.3753 14.6597 16.8386 15.1964 16.8386 15.8584C16.8386 16.5205 17.3753 17.0572 18.0374 17.0572Z" fill="black"/>
<path d="M23.4776 17.0572C24.1396 17.0572 24.6764 16.5205 24.6764 15.8584C24.6764 15.1964 24.1396 14.6597 23.4776 14.6597C22.8155 14.6597 22.2788 15.1964 22.2788 15.8584C22.2788 16.5205 22.8155 17.0572 23.4776 17.0572Z" fill="black"/>
</g>
<defs>
<clipPath id="clip0_380_23929">
<rect width="34.9259" height="34.9259" fill="white" transform="translate(0.519287 0.118652)"/>
</clipPath>
</defs>
</svg>
