<svg width="34" height="40" viewBox="0 0 34 40" fill="none" xmlns="http://www.w3.org/2000/svg">
<g clip-path="url(#clip0_27_332)">
<path d="M34.0001 23.993C34.0001 37.1087 34.5178 39.0933 21.305 39.0933C14.5098 39.0933 11.3172 38.6295 9.83948 36.6665C12.2437 36.9612 14.6659 37.0838 17.0876 37.0332C23.4945 37.0332 27.1617 36.6126 29.4592 34.3259C31.9507 31.8236 31.9507 28.0593 31.9399 21.2426V17.9205C32.0101 15.4662 31.9345 13.0098 31.7134 10.5645C34.2266 12.4628 34.0001 16.3134 34.0001 23.993Z" fill="#000813"/>
<path d="M15.6747 2.75546C29.0709 2.75546 28.3698 4.78322 28.3698 17.8558C28.3698 30.9284 28.8983 32.9562 15.6747 32.9562C1.66375 32.9562 2.94728 30.95 2.94728 17.8558C2.94728 4.76165 2.13833 2.75546 15.6747 2.75546ZM15.6747 0.598267C9.20314 0.598267 5.48198 1.01892 3.19535 3.30554C0.908728 5.59217 0.790082 9.47512 0.790082 15.6986C0.790082 16.3781 0.790082 17.1008 0.790082 17.8558C0.790082 18.9344 0.790082 20.013 0.790082 20.9406C0.790082 26.6572 0.71458 30.1087 3.01199 32.4384C5.3094 34.7682 9.04135 35.1134 15.6747 35.1134C22.0816 35.1134 25.7596 34.6927 28.0462 32.3953C30.5486 29.893 30.5378 26.1394 30.527 19.3227V15.9898C30.527 9.61534 30.527 5.77553 28.1002 3.31633C25.8135 1.01892 22.1247 0.598267 15.6747 0.598267Z" fill="#000813"/>
<path d="M23.3867 20.412H7.83328C7.14824 20.412 6.5929 20.9674 6.5929 21.6524V21.6632C6.5929 22.3483 7.14824 22.9036 7.83328 22.9036H23.3867C24.0717 22.9036 24.627 22.3483 24.627 21.6632V21.6524C24.627 20.9674 24.0717 20.412 23.3867 20.412Z" fill="#000813"/>
<path d="M18.7703 25.6432H7.83328C7.14824 25.6432 6.5929 26.1986 6.5929 26.8836V26.8944C6.5929 27.5795 7.14824 28.1348 7.83328 28.1348H18.7703C19.4553 28.1348 20.0106 27.5795 20.0106 26.8944V26.8836C20.0106 26.1986 19.4553 25.6432 18.7703 25.6432Z" fill="#000813"/>
<path d="M17.3141 13.714C17.3782 14.1428 17.2845 14.5803 17.0505 14.9453C16.8164 15.3103 16.4578 15.578 16.0413 15.6986C15.505 15.8554 14.9499 15.9388 14.3911 15.9467H14.0999C13.5821 15.9467 12.935 15.9467 12.0505 15.9467C10.7152 16.0486 9.37217 15.9651 8.05973 15.6986C7.63785 15.582 7.27373 15.3141 7.03695 14.946C6.80017 14.5779 6.70734 14.1354 6.7762 13.7032C6.7762 11.546 8.29702 11.4166 12.0505 11.4166C15.8041 11.4166 17.3141 11.5136 17.3141 13.714Z" fill="#000813"/>
<path d="M14.8118 7.8356C14.8118 8.39025 14.6474 8.93244 14.3392 9.39362C14.0311 9.85479 13.5931 10.2142 13.0807 10.4265C12.5682 10.6387 12.0044 10.6943 11.4604 10.5861C10.9164 10.4779 10.4167 10.2108 10.0245 9.81858C9.63231 9.42638 9.36522 8.92669 9.25701 8.3827C9.1488 7.83871 9.20434 7.27485 9.41659 6.76242C9.62885 6.24999 9.98829 5.81201 10.4495 5.50387C10.9106 5.19572 11.4528 5.03125 12.0075 5.03125C12.7512 5.03125 13.4645 5.32671 13.9905 5.85263C14.5164 6.37854 14.8118 7.09184 14.8118 7.8356Z" fill="#000813"/>
</g>
<defs>
<clipPath id="clip0_27_332">
<rect width="33.21" height="38.4735" fill="white" transform="translate(0.790039 0.598267)"/>
</clipPath>
</defs>
</svg>
