<svg width="31" height="31" viewBox="0 0 31 31" fill="none" xmlns="http://www.w3.org/2000/svg">
<g clip-path="url(#clip0_48_1200)">
<path d="M15.0108 29.1868C22.84 29.1868 29.1868 22.84 29.1868 15.0108C29.1868 7.18163 22.84 0.834839 15.0108 0.834839C7.18163 0.834839 0.834839 7.18163 0.834839 15.0108C0.834839 22.84 7.18163 29.1868 15.0108 29.1868Z" stroke="#0C8CE9" stroke-width="1.66972" stroke-miterlimit="10"/>
<path d="M15.0108 20.1702C22.84 20.1702 29.1868 17.8603 29.1868 15.0108C29.1868 12.1613 22.84 9.85132 15.0108 9.85132C7.18163 9.85132 0.834839 12.1613 0.834839 15.0108C0.834839 17.8603 7.18163 20.1702 15.0108 20.1702Z" stroke="#0C8CE9" stroke-width="1.66972" stroke-miterlimit="10"/>
<path d="M15.0109 29.1868C17.8604 29.1868 20.1703 22.84 20.1703 15.0108C20.1703 7.18163 17.8604 0.834839 15.0109 0.834839C12.1614 0.834839 9.85144 7.18163 9.85144 15.0108C9.85144 22.84 12.1614 29.1868 15.0109 29.1868Z" stroke="#0C8CE9" stroke-width="1.66972" stroke-miterlimit="10"/>
</g>
<defs>
<clipPath id="clip0_48_1200">
<rect width="30.03" height="30.03" fill="white"/>
</clipPath>
</defs>
</svg>
