<svg width="38" height="39" viewBox="0 0 38 39" fill="none" xmlns="http://www.w3.org/2000/svg">
<path d="M18.5963 22.1356C23.17 22.1356 23.8512 22.8167 23.8512 27.3904C23.8512 31.9641 23.17 32.6452 18.5963 32.6452C14.12 32.6452 13.3415 31.9641 13.3415 27.3904C13.3415 22.8167 14.12 22.1356 18.5963 22.1356ZM18.5963 20.1893C12.9523 20.1893 11.3953 21.7463 11.3953 27.3904C11.3953 33.0345 12.9523 34.5915 18.5963 34.5915C24.2404 34.5915 25.7974 33.0345 25.7974 27.3904C25.7974 21.7463 24.2404 20.1893 18.5963 20.1893Z" fill="#000813"/>
<path d="M36.1124 11.334L19.5694 0.726994C19.2775 0.53237 18.8882 0.435059 18.499 0.435059C18.1097 0.435059 17.7205 0.53237 17.4286 0.726994L1.08018 11.334C0.398994 11.8205 0.00974648 12.6963 0.301682 13.4748C0.496305 14.3506 1.2748 14.8372 2.15061 14.8372H3.31835C2.9291 16.8807 2.73448 19.5082 2.73448 22.6221C2.73448 35.8565 5.45921 38.5813 18.6936 38.5813C31.928 38.5813 34.6527 35.8565 34.6527 22.6221C34.6527 19.4109 34.4581 16.8807 34.0689 14.8372H35.1393C36.0151 14.8372 36.7936 14.2533 36.9882 13.4748C37.1828 12.6963 36.8909 11.8205 36.1124 11.334ZM31.3441 12.9883C31.6361 13.5721 31.8307 14.156 32.0253 14.9345C32.5119 16.8807 32.6092 19.4109 32.6092 22.7195C32.6092 34.8834 30.7603 36.7323 18.5963 36.7323C6.43232 36.7323 4.5834 34.8834 4.5834 22.7195C4.5834 19.4109 4.68071 16.8807 5.16727 14.9345C5.36189 14.156 5.55652 13.5721 5.84845 12.9883H2.05329L4.38878 11.5286L10.9087 7.34419L18.5963 2.47861L26.2839 7.44151L32.8038 11.6259L35.1393 13.0856H31.3441V12.9883Z" fill="#000813"/>
</svg>
