<svg width="32" height="30" viewBox="0 0 32 30" fill="none" xmlns="http://www.w3.org/2000/svg">
<path d="M28.6043 3.5961C26.8456 1.8374 24.4713 0.870117 21.9212 0.870117C19.6349 0.870117 17.4365 1.66153 15.7658 3.15642C14.095 1.66153 11.8966 0.870117 9.61034 0.870117C6.26881 0.870117 3.27903 2.62881 1.52034 5.53066C-0.765969 9.22392 -0.0624908 14.2362 3.10316 17.0501L15.0623 29.0093C15.2382 29.1851 15.502 29.2731 15.7658 29.2731C16.0296 29.2731 16.2934 29.1851 16.4692 29.0093L28.5163 17.0501L28.6043 16.9622C28.6043 16.9622 28.6922 16.9622 28.6922 16.8742C30.3629 15.3794 31.4182 12.9172 31.4182 10.2791C31.4182 7.72903 30.3629 5.35479 28.6043 3.5961ZM27.9008 15.2035C27.7249 15.3794 27.549 15.5552 27.3732 15.7311L15.7658 27.2506L4.33425 15.7311C4.15838 15.5552 3.89457 15.3794 3.71871 15.1156C1.60827 12.7413 1.25653 9.13599 3.01523 6.32207C4.51012 3.94783 6.97229 2.54088 9.61034 2.54088C11.6328 2.54088 13.5674 3.33229 15.0623 4.73925L15.7658 5.6186L16.5572 4.91512C17.9641 3.42023 19.8987 2.71675 22.0091 2.71675C24.0316 2.71675 25.9662 3.50816 27.4611 4.91512C28.8681 6.32207 29.6595 8.25664 29.6595 10.3671C29.6595 12.2137 28.956 13.9724 27.9008 15.2035Z" fill="black"/>
<path d="M27.9007 15.2036C27.7248 15.3795 27.5489 15.5554 27.373 15.7312L27.9007 15.2036Z" fill="black"/>
<path d="M28.5163 17.05L15.7657 29.7127L15.0623 29.0092C15.2381 29.185 15.5019 29.273 15.7657 29.273C16.0295 29.273 16.2933 29.185 16.4692 29.0092L28.5163 17.05Z" fill="black"/>
</svg>
