<svg width="32" height="38" viewBox="0 0 32 38" fill="none" xmlns="http://www.w3.org/2000/svg">
<g clip-path="url(#clip0_27_317)">
<path d="M13.6731 6.41333H17.9126C19.5591 6.41333 21.1894 6.73763 22.7106 7.3677C24.2317 7.99778 25.6138 8.9213 26.7781 10.0855C27.9423 11.2498 28.8658 12.6319 29.4959 14.153C30.126 15.6742 30.4503 17.3045 30.4503 18.951V28.8943C30.4503 29.7766 30.0998 30.6227 29.476 31.2465C28.8521 31.8704 28.006 32.2208 27.1238 32.2208H4.46196C3.58749 32.2209 2.74816 31.8767 2.1256 31.2626C1.50305 30.6485 1.14734 29.8139 1.13546 28.9395V18.9962C1.12951 17.3459 1.44941 15.7107 2.07683 14.1844C2.70424 12.658 3.62681 11.2705 4.79164 10.1015C5.95646 8.93247 7.34061 8.00491 8.8647 7.37201C10.3888 6.73911 12.0228 6.41332 13.6731 6.41333Z" stroke="#000813" stroke-width="1.80788" stroke-miterlimit="10"/>
<path d="M15.7883 0.519625C14.7469 0.52438 13.7495 0.940185 13.0132 1.67658C12.2768 2.41297 11.861 3.41036 11.8562 4.45177V4.506C11.8652 5.18546 12.0556 5.85017 12.4076 6.4314C13.1578 6.23671 13.9227 6.10369 14.6946 6.03366C14.4422 5.85372 14.2361 5.61655 14.0932 5.34158C13.9502 5.06661 13.8744 4.76168 13.872 4.45177C13.8582 4.33769 13.8582 4.22235 13.872 4.10827C13.9537 3.66081 14.1898 3.2562 14.5392 2.9649C14.8885 2.67359 15.329 2.51404 15.7838 2.51404C16.2387 2.51404 16.6791 2.67359 17.0285 2.9649C17.3778 3.2562 17.6139 3.66081 17.6957 4.10827C17.7095 4.22235 17.7095 4.33769 17.6957 4.45177C17.6937 4.76274 17.6172 5.06872 17.4725 5.34398C17.3278 5.61924 17.1191 5.85576 16.864 6.03366C17.6571 6.10135 18.4431 6.23438 19.2143 6.4314C19.57 5.8518 19.7607 5.18604 19.7657 4.506V4.45177C19.7633 3.93225 19.6585 3.4183 19.4572 2.93935C19.2559 2.4604 18.9622 2.02586 18.5927 1.66061C18.2233 1.29536 17.7854 1.00657 17.3042 0.810781C16.823 0.614993 16.3079 0.516053 15.7883 0.519625Z" fill="#000813"/>
<path d="M21.5284 33.5587C21.0195 34.6508 20.2095 35.5749 19.1935 36.2223C18.1774 36.8698 16.9977 37.2138 15.7929 37.2138C14.5881 37.2138 13.4083 36.8698 12.3923 36.2223C11.3763 35.5749 10.5662 34.6508 10.0574 33.5587H12.3715C12.7784 34.0741 13.2969 34.4907 13.8879 34.777C14.4789 35.0634 15.1271 35.2122 15.7838 35.2122C16.4406 35.2122 17.0888 35.0634 17.6798 34.777C18.2708 34.4907 18.7892 34.0741 19.1962 33.5587H21.5284Z" fill="#000813"/>
</g>
<defs>
<clipPath id="clip0_27_317">
<rect width="31.1227" height="36.691" fill="white" transform="translate(0.231567 0.519653)"/>
</clipPath>
</defs>
</svg>
