<svg width="36" height="36" viewBox="0 0 36 36" fill="none" xmlns="http://www.w3.org/2000/svg">
<path fill-rule="evenodd" clip-rule="evenodd" d="M19.5832 1.27644C18.7136 0.822568 17.6769 0.822567 16.8072 1.27644L12.3846 3.58456C12.2279 3.66632 12.0643 3.73408 11.8957 3.78705L7.13631 5.28227C6.20042 5.57629 5.4674 6.3093 5.17338 7.24519L3.67816 12.0046C3.6252 12.1732 3.55744 12.3368 3.47568 12.4934L1.16755 16.9161C0.713681 17.7858 0.713681 18.8224 1.16755 19.6921L3.47568 24.1148C3.55744 24.2715 3.6252 24.4351 3.67816 24.6036L5.17338 29.3631C5.4674 30.2989 6.20042 31.032 7.13631 31.326L11.8957 32.8212C12.0643 32.8742 12.2279 32.9419 12.3846 33.0237L16.8072 35.3318C17.6769 35.7857 18.7136 35.7857 19.5832 35.3318L24.0059 33.0237C24.1626 32.9419 24.3262 32.8742 24.4948 32.8212L29.2542 31.326C30.1901 31.032 30.9231 30.2989 31.2171 29.3631L32.7123 24.6036C32.7653 24.4351 32.833 24.2715 32.9148 24.1148L35.2229 19.6921C35.6768 18.8224 35.6768 17.7858 35.2229 16.9161L32.9148 12.4934C32.833 12.3368 32.7653 12.1732 32.7123 12.0046L31.2171 7.24519C30.9231 6.30931 30.1901 5.57629 29.2542 5.28227L24.4948 3.78705C24.3262 3.73408 24.1626 3.66632 24.0059 3.58456L19.5832 1.27644ZM18.005 30.2276C24.6952 30.2276 30.1188 24.804 30.1188 18.1137C30.1188 11.4235 24.6952 5.99994 18.005 5.99994C11.3147 5.99994 5.89117 11.4235 5.89117 18.1137C5.89117 24.804 11.3147 30.2276 18.005 30.2276Z" fill="black"/>
</svg>
