<svg width="36" height="36" viewBox="0 0 36 36" fill="none" xmlns="http://www.w3.org/2000/svg">
<path d="M17.9814 32.4682C5.47235 32.4682 3.20508 30.201 3.20508 17.6919C3.20508 5.1828 5.47235 2.91553 17.9814 2.91553C18.4505 2.91553 18.7633 3.22825 18.7633 3.69735C18.7633 4.16644 18.4505 4.47916 17.9814 4.47916C6.25417 4.47916 4.76871 5.96462 4.76871 17.6919C4.76871 29.4191 6.25417 30.9046 17.9814 30.9046C29.7087 30.9046 31.1942 29.4191 31.1942 17.6919C31.1942 17.2228 31.5069 16.9101 31.976 16.9101C32.4451 16.9101 32.7578 17.2228 32.7578 17.6919C32.7578 30.201 30.4905 32.4682 17.9814 32.4682Z" fill="black"/>
<path d="M14.1615 24.6498C13.6924 24.6498 13.3796 24.3371 13.3796 23.868C13.3796 16.0498 19.7905 9.63892 27.6087 9.63892H31.0487C31.5178 9.63892 31.8305 9.95164 31.8305 10.4207C31.8305 10.8898 31.5178 11.2026 31.0487 11.2026H27.6087C20.6505 11.2026 14.9433 16.9098 14.9433 23.868C14.9433 24.2589 14.6305 24.6498 14.1615 24.6498Z" fill="black"/>
<path d="M25.2576 17.8484C25.0231 17.8484 24.8667 17.7702 24.7104 17.6139C24.3976 17.3012 24.3976 16.8321 24.7104 16.5193L30.8867 10.343L24.8667 4.32299C24.554 4.01026 24.554 3.54117 24.8667 3.22844C25.1795 2.91571 25.6486 2.91571 25.9613 3.22844L32.5286 9.79571C32.8413 10.1084 32.8413 10.5775 32.5286 10.8903L25.8049 17.6139C25.6486 17.7702 25.414 17.8484 25.2576 17.8484Z" fill="black"/>
</svg>
