<svg width="46" height="46" viewBox="0 0 46 46" fill="none" xmlns="http://www.w3.org/2000/svg">
<rect width="45.197" height="45.197" fill="white"/>
<path d="M22.5985 14.3962C37.84 14.3962 40.1249 16.2166 40.1249 27.9595C40.1249 39.7526 37.8358 41.5228 22.5985 41.5228C7.38218 41.5228 5.07211 39.7526 5.07211 27.9595C5.07211 16.2166 7.38218 14.3962 22.5985 14.3962ZM22.5985 12.3289C14.7434 12.3289 9.90987 12.7766 6.86325 15.1411C3.63668 17.6437 3.00476 21.7365 3.00476 27.9595C3.00476 34.1992 3.63668 38.3004 6.86325 40.7988C9.89731 43.1465 14.7351 43.5901 22.5943 43.5901C30.4662 43.5901 35.3039 43.1465 38.338 40.7988C41.5562 38.3088 42.1881 34.2034 42.1881 27.9637C42.1881 21.7407 41.5604 17.6479 38.3422 15.1495C35.2997 12.7766 30.462 12.3289 22.5985 12.3289Z" fill="#000813"/>
<path d="M32.5709 12.065C32.0017 12.065 31.5372 11.6047 31.5372 11.0314C31.5372 6.98037 28.1935 4.56149 22.5982 4.56149C17.0867 4.56149 13.6593 7.03895 13.6593 11.0314C13.6593 11.6005 13.1947 12.065 12.6256 12.065C12.0564 12.065 11.5919 11.6047 11.5919 11.0314C11.5919 7.09336 14.4753 2.49414 22.5982 2.49414C27.6745 2.49414 33.6046 4.72888 33.6046 11.0314C33.6046 11.6005 33.14 12.065 32.5709 12.065Z" fill="#000813"/>
<path d="M12.8266 22.0462C13.5084 22.0462 14.0611 21.4935 14.0611 20.8117C14.0611 20.1299 13.5084 19.5771 12.8266 19.5771C12.1448 19.5771 11.592 20.1299 11.592 20.8117C11.592 21.4935 12.1448 22.0462 12.8266 22.0462Z" fill="#000813"/>
<path d="M32.3703 22.0462C33.0521 22.0462 33.6048 21.4935 33.6048 20.8117C33.6048 20.1299 33.0521 19.5771 32.3703 19.5771C31.6885 19.5771 31.1357 20.1299 31.1357 20.8117C31.1357 21.4935 31.6885 22.0462 32.3703 22.0462Z" fill="#000813"/>
</svg>
