<svg width="18" height="19" viewBox="0 0 18 19" fill="none" xmlns="http://www.w3.org/2000/svg">
<path d="M16.0924 13.6872C16.0924 14.7528 15.8862 15.7841 14.4424 16.2653C13.9268 16.4372 13.2393 16.5403 12.3112 16.6091C12.1737 16.6091 12.0706 16.6091 11.9331 16.6435C11.2456 16.6778 10.4206 16.6778 9.25181 16.6778C6.67368 16.6778 5.09243 16.6091 4.09556 16.2653C2.65181 15.7841 2.44556 14.7528 2.44556 13.6872C2.44556 10.8341 4.40493 10.731 9.25181 10.731C14.0987 10.731 16.0924 10.8341 16.0924 13.6872Z" fill="white"/>
<path d="M12.9781 7.50211C13.4406 5.54365 12.2278 3.58112 10.2693 3.11867C8.31089 2.65623 6.34836 3.86898 5.88592 5.82744C5.42347 7.78589 6.63623 9.74842 8.59468 10.2109C10.5531 10.6733 12.5157 9.46056 12.9781 7.50211Z" fill="white"/>
<rect x="1.21436" y="8.81738" width="5.47852" height="5.47852" rx="2.73926" fill="white"/>
<path d="M3.94946 10.4614V12.6528" stroke="#0C8CE9" stroke-width="0.365234" stroke-linecap="round"/>
<path d="M2.85693 11.5566L5.04834 11.5566" stroke="#0C8CE9" stroke-width="0.365234" stroke-linecap="round"/>
<rect x="1.21436" y="8.81738" width="5.47852" height="5.47852" rx="2.73926" stroke="#0C8CE9" stroke-width="0.365234"/>
</svg>
